<svg xmlns="http://www.w3.org/2000/svg"
width="24px" viewBox="0 0 546.000000 292.000000"
preserveAspectRatio="xMidYMid meet" style="vertical-align: -0.125em;">
	<g transform="translate(0.000000,292.000000) scale(0.100000,-0.100000)"
	fill="#000000" stroke="none">
	<path d="M1590 2270 l0 -650 180 0 180 0 0 650 0 650 -180 0 -180 0 0 -650z"/>
	<path d="M2190 2765 l0 -155 180 0 180 0 0 155 0 155 -180 0 -180 0 0 -155z"/>
	<path d="M2790 2269 l0 -650 353 3 352 3 57 28 c74 36 159 128 189 204 19 48
	23 77 24 169 0 107 -1 112 -38 186 -45 92 -112 157 -195 189 -48 19 -83 23
	-219 27 l-163 4 0 244 0 244 -180 0 -180 0 0 -651z m532 -139 c78 -22 103
	-106 49 -161 -28 -28 -33 -29 -120 -29 l-91 0 0 100 0 100 63 0 c34 0 79 -5
	99 -10z"/>
	<path d="M2190 2025 l0 -405 180 0 180 0 0 405 0 405 -180 0 -180 0 0 -405z"/>
	<path d="M253 1280 c-96 -34 -166 -101 -217 -209 l-31 -66 0 -355 0 -355 32
	-67 c40 -85 106 -156 180 -194 l58 -29 545 0 545 0 63 34 c262 142 283 537 37
	706 -83 57 -135 65 -427 65 l-258 0 0 -145 0 -145 205 0 c221 0 247 -5 271
	-51 22 -44 17 -85 -15 -121 l-29 -33 -354 -3 c-194 -2 -372 -1 -395 3 -25 4
	-51 16 -67 32 l-26 26 0 277 0 277 25 25 c14 14 39 28 56 32 18 3 281 6 585 6
	l554 0 0 155 0 155 -642 0 c-604 -1 -646 -2 -695 -20z" fill="#E74A45"/>
	<path d="M1820 1145 l0 -155 573 0 c314 0 589 -3 609 -6 21 -4 49 -18 63 -32
	l25 -25 0 -277 0 -277 -24 -26 c-15 -16 -39 -28 -67 -32 -24 -3 -217 -5 -429
	-3 l-385 3 -3 248 -2 247 -180 0 -180 0 0 -405 0 -405 664 0 c740 0 719 -2
	812 69 61 46 106 105 136 178 23 57 23 65 23 403 0 338 0 346 -23 403 -30 74
	-91 151 -150 188 -94 60 -84 59 -804 59 l-658 0 0 -155z" fill="#E74A45"/>
	<path d="M3780 975 l325 -325 -325 -325 -325 -325 255 0 255 0 247 247 248
	248 248 -248 247 -247 255 0 255 0 -325 325 -325 325 325 325 325 325 -255 0
	-255 0 -247 -247 -248 -248 -248 248 -247 247 -255 0 -255 0 325 -325z" fill="#E74A45"/>
	</g>
</svg>